<?xml version="1.0" encoding="UTF-8" standalone="no"?>
<!DOCTYPE svg PUBLIC "-//W3C//DTD SVG 1.1//EN" "http://www.w3.org/Graphics/SVG/1.1/DTD/svg11.dtd">
<svg width="100%" height="100%" viewBox="0 0 32 32" version="1.1" xmlns="http://www.w3.org/2000/svg" xmlns:xlink="http://www.w3.org/1999/xlink" xml:space="preserve" xmlns:serif="http://www.serif.com/" style="fill-rule:evenodd;clip-rule:evenodd;stroke-linejoin:round;stroke-miterlimit:2;">
<g>
<ellipse cx="16.114" cy="16" rx="9.386" ry="9.5" style="fill:#fff;"/>
<path d="M15.394,31.974c-0.741,-0.029 -1.401,-0.106 -1.551,-0.181c-0.183,-0.093 -0.309,-0.206 -0.396,-0.354c-0.228,-0.388 -0.297,-0.764 -0.337,-1.832c-0.03,-0.79 -0.088,-1.252 -0.181,-1.431c-0.076,-0.148 -0.293,-0.305 -0.722,-0.526c-0.853,-0.439 -1.904,-0.825 -2.329,-0.858c-0.21,-0.015 -0.251,-0.008 -0.437,0.08c-0.268,0.127 -0.616,0.388 -1.191,0.896c-0.704,0.622 -1.193,0.972 -1.417,1.014c-0.133,0.025 -0.282,-0.053 -0.683,-0.356c-0.411,-0.312 -1.017,-0.865 -1.729,-1.577c-0.923,-0.925 -1.168,-1.276 -1.192,-1.712c-0.012,-0.206 -0.002,-0.257 0.082,-0.437c0.112,-0.238 0.346,-0.541 0.849,-1.094c0.739,-0.816 0.914,-1.119 0.916,-1.593c0.003,-0.417 -0.163,-0.895 -0.658,-1.907c-0.219,-0.451 -0.288,-0.559 -0.459,-0.733c-0.29,-0.295 -0.344,-0.309 -1.4,-0.363c-1.167,-0.059 -1.513,-0.119 -1.984,-0.343c-0.308,-0.145 -0.417,-0.264 -0.461,-0.503c-0.074,-0.387 -0.112,-1.21 -0.114,-2.43c-0.004,-2.581 0.023,-2.613 2.234,-2.758c1.09,-0.071 1.336,-0.117 1.611,-0.3c0.253,-0.167 0.503,-0.625 0.911,-1.663c0.252,-0.643 0.323,-0.911 0.322,-1.233c-0.001,-0.462 -0.175,-0.758 -0.903,-1.538c-0.896,-0.96 -1.072,-1.296 -0.926,-1.762c0.126,-0.402 0.612,-0.99 1.564,-1.895c1.033,-0.98 1.59,-1.429 1.85,-1.491c0.407,-0.099 0.864,0.158 1.827,1.024c0.653,0.588 1.159,0.924 1.387,0.924c0.458,-0.001 2.354,-0.721 2.849,-1.082c0.215,-0.157 0.316,-0.643 0.432,-2.082c0.13,-1.619 0.261,-1.75 1.853,-1.836c0.346,-0.018 1.151,-0.037 1.787,-0.04c1.416,-0.008 1.406,-0.01 1.776,0.343c0.413,0.392 0.452,0.526 0.481,1.663c0.027,1.008 0.08,1.287 0.315,1.639c0.231,0.348 0.694,0.633 1.615,0.999c0.745,0.297 0.917,0.342 1.298,0.345c0.33,0.002 0.349,-0.001 0.584,-0.118c0.256,-0.127 0.566,-0.376 1.236,-0.995c1.01,-0.935 1.321,-0.989 2.108,-0.366c0.33,0.26 2.102,2.028 2.413,2.406c0.274,0.333 0.424,0.551 0.47,0.684c0.072,0.208 -0.274,0.737 -1.043,1.587c-0.49,0.543 -0.742,0.902 -0.843,1.201c-0.139,0.411 -0.048,0.867 0.37,1.844c0.665,1.553 0.883,1.721 2.24,1.726c0.786,0.003 1.329,0.048 1.543,0.128c0.203,0.075 0.389,0.25 0.467,0.437c0.137,0.329 0.152,0.523 0.168,2.211c0.018,1.921 -0.002,2.23 -0.16,2.544c-0.126,0.249 -0.458,0.55 -0.7,0.634c-0.166,0.057 -0.858,0.112 -1.464,0.114c-0.442,0.002 -1.002,0.07 -1.191,0.147c-0.225,0.09 -0.482,0.458 -0.837,1.2c-0.358,0.746 -0.566,1.385 -0.566,1.74c0,0.393 0.204,0.722 0.91,1.473c0.519,0.552 0.765,0.861 0.883,1.113c0.086,0.184 0.094,0.23 0.081,0.438c-0.029,0.43 -0.226,0.712 -1.157,1.655c-0.991,1.005 -1.813,1.727 -2.191,1.925c-0.157,0.082 -0.181,0.086 -0.301,0.05c-0.267,-0.08 -0.699,-0.399 -1.611,-1.191c-1.068,-0.926 -1.423,-0.945 -3.258,-0.18c-0.53,0.222 -0.79,0.368 -0.993,0.562c-0.311,0.294 -0.361,0.517 -0.387,1.728c-0.019,0.959 -0.048,1.201 -0.167,1.42c-0.046,0.085 -0.218,0.284 -0.381,0.442c-0.232,0.224 -0.332,0.299 -0.464,0.343c-0.323,0.107 -1.224,0.135 -2.648,0.081Zm2.042,-6.843c2.784,-0.452 5.094,-1.922 6.582,-4.189c1.32,-2.009 1.801,-4.483 1.329,-6.825c-0.481,-2.375 -2.02,-4.664 -4.022,-5.979c-0.533,-0.35 -1.341,-0.746 -2.051,-1.005c-1.685,-0.614 -4.124,-0.655 -5.994,-0.1c-0.828,0.246 -1.57,0.599 -2.326,1.108c-0.579,0.39 -0.992,0.737 -1.542,1.301c-1.811,1.859 -2.624,3.861 -2.624,6.471c-0,2.464 0.747,4.46 2.306,6.155c1.535,1.668 3.445,2.736 5.473,3.059c0.589,0.093 0.584,0.093 1.556,0.083c0.719,-0.008 0.973,-0.024 1.313,-0.079Z" style="fill:#fafafa;fill-rule:nonzero;"/>
<path id="path861" d="M15.381,31.617c-0.726,-0.028 -1.372,-0.103 -1.519,-0.177c-0.179,-0.091 -0.303,-0.201 -0.388,-0.346c-0.223,-0.38 -0.291,-0.748 -0.33,-1.792c-0.029,-0.773 -0.086,-1.225 -0.177,-1.4c-0.075,-0.145 -0.287,-0.299 -0.707,-0.515c-0.836,-0.429 -1.865,-0.807 -2.281,-0.839c-0.206,-0.015 -0.246,-0.008 -0.428,0.078c-0.263,0.124 -0.604,0.38 -1.167,0.877c-0.689,0.608 -1.168,0.95 -1.388,0.992c-0.13,0.024 -0.276,-0.052 -0.669,-0.349c-0.402,-0.305 -0.996,-0.846 -1.693,-1.542c-0.904,-0.905 -1.144,-1.249 -1.168,-1.675c-0.011,-0.202 -0.002,-0.252 0.081,-0.428c0.109,-0.233 0.339,-0.529 0.831,-1.07c0.724,-0.798 0.895,-1.095 0.897,-1.558c0.003,-0.408 -0.159,-0.876 -0.644,-1.866c-0.215,-0.441 -0.282,-0.547 -0.45,-0.717c-0.284,-0.289 -0.337,-0.302 -1.371,-0.355c-1.143,-0.058 -1.482,-0.117 -1.943,-0.336c-0.302,-0.142 -0.408,-0.258 -0.452,-0.492c-0.072,-0.378 -0.109,-1.184 -0.111,-2.377c-0.004,-2.525 0.022,-2.556 2.188,-2.698c1.067,-0.07 1.308,-0.115 1.578,-0.294c0.247,-0.163 0.492,-0.611 0.892,-1.627c0.247,-0.629 0.316,-0.891 0.315,-1.206c-0.001,-0.452 -0.171,-0.741 -0.884,-1.504c-0.878,-0.94 -1.05,-1.268 -0.907,-1.724c0.123,-0.393 0.599,-0.969 1.532,-1.854c1.012,-0.959 1.557,-1.398 1.812,-1.459c0.398,-0.096 0.846,0.155 1.789,1.002c0.64,0.575 1.135,0.904 1.359,0.904c0.448,-0.001 2.305,-0.705 2.79,-1.058c0.211,-0.154 0.31,-0.629 0.423,-2.037c0.127,-1.584 0.256,-1.712 1.815,-1.796c0.339,-0.018 1.127,-0.036 1.75,-0.039c1.387,-0.008 1.377,-0.01 1.74,0.335c0.404,0.384 0.442,0.515 0.471,1.627c0.026,0.986 0.078,1.259 0.308,1.603c0.227,0.341 0.68,0.62 1.582,0.978c0.73,0.29 0.898,0.334 1.271,0.337c0.324,0.002 0.342,-0.001 0.572,-0.115c0.251,-0.124 0.555,-0.368 1.211,-0.974c0.989,-0.914 1.294,-0.967 2.065,-0.358c0.323,0.255 2.058,1.984 2.363,2.354c0.268,0.326 0.415,0.539 0.46,0.669c0.071,0.204 -0.268,0.721 -1.021,1.553c-0.48,0.531 -0.727,0.882 -0.826,1.175c-0.136,0.402 -0.047,0.848 0.363,1.804c0.651,1.519 0.864,1.683 2.193,1.688c0.77,0.003 1.302,0.047 1.512,0.125c0.199,0.074 0.381,0.245 0.457,0.428c0.134,0.322 0.149,0.512 0.165,2.163c0.017,1.879 -0.002,2.181 -0.157,2.489c-0.123,0.243 -0.449,0.538 -0.686,0.62c-0.162,0.056 -0.84,0.109 -1.434,0.111c-0.432,0.002 -0.981,0.069 -1.166,0.144c-0.22,0.088 -0.472,0.448 -0.82,1.174c-0.35,0.73 -0.554,1.355 -0.554,1.702c0,0.385 0.2,0.707 0.891,1.441c0.508,0.54 0.749,0.843 0.865,1.089c0.084,0.18 0.092,0.225 0.079,0.429c-0.028,0.42 -0.221,0.696 -1.133,1.619c-0.971,0.983 -1.776,1.689 -2.146,1.883c-0.154,0.08 -0.177,0.084 -0.295,0.049c-0.261,-0.078 -0.684,-0.391 -1.578,-1.165c-1.046,-0.906 -1.393,-0.925 -3.191,-0.176c-0.519,0.217 -0.773,0.36 -0.972,0.549c-0.305,0.288 -0.354,0.506 -0.379,1.691c-0.019,0.938 -0.047,1.175 -0.164,1.389c-0.045,0.083 -0.213,0.278 -0.373,0.432c-0.227,0.22 -0.325,0.293 -0.454,0.336c-0.317,0.105 -1.199,0.132 -2.594,0.079Zm2,-6.694c2.727,-0.442 4.989,-1.88 6.447,-4.098c1.293,-1.966 1.764,-4.386 1.301,-6.677c-0.471,-2.323 -1.978,-4.563 -3.939,-5.849c-0.522,-0.343 -1.313,-0.73 -2.009,-0.983c-1.65,-0.601 -4.039,-0.641 -5.87,-0.098c-0.811,0.241 -1.538,0.586 -2.279,1.084c-0.567,0.381 -0.971,0.721 -1.51,1.273c-1.774,1.818 -2.57,3.777 -2.57,6.33c0,2.411 0.732,4.363 2.259,6.021c1.503,1.632 3.374,2.677 5.36,2.993c0.577,0.091 0.572,0.091 1.524,0.081c0.704,-0.008 0.953,-0.023 1.286,-0.077Z" style="fill:#145184;fill-rule:nonzero;">
<animateTransform attributeName="transform" attributeType="XML" dur="0.5s" from="0 16.1 15.9" repeatCount="1" to="180 16.1 15.9" type="rotate"/></path>
<path d="M16.429,15.49l-0.493,-0.485l0.645,-0.653c0.733,-0.743 1.036,-1.088 1.14,-1.3c0.066,-0.134 0.074,-0.203 0.089,-0.783l0.015,-0.636l0.104,-0.21c0.123,-0.25 0.509,-0.654 0.78,-0.815c0.354,-0.212 0.714,-0.322 1.051,-0.322c0.168,0 0.521,0.077 0.569,0.125c0.061,0.062 -0.05,0.201 -0.649,0.809l-0.629,0.641l0.534,0.534c0.294,0.293 0.549,0.528 0.566,0.522c0.017,-0.007 0.309,-0.277 0.649,-0.6c0.339,-0.323 0.655,-0.607 0.703,-0.632c0.112,-0.06 0.156,-0.017 0.224,0.218c0.099,0.338 0.046,0.693 -0.162,1.09c-0.198,0.376 -0.748,0.903 -1.109,1.061c-0.095,0.042 -0.259,0.058 -0.726,0.073c-0.571,0.017 -0.612,0.023 -0.764,0.102c-0.219,0.114 -0.395,0.257 -0.97,0.791c-0.472,0.438 -0.904,0.825 -1.019,0.913c-0.048,0.037 -0.11,-0.013 -0.548,-0.443Z" style="fill:#145184;fill-rule:nonzero;"/>
<path d="M20.653,21.542c-0.32,-0.118 -0.873,-0.589 -1.798,-1.53c-0.837,-0.852 -1.394,-1.504 -1.634,-1.914c-0.217,-0.372 -0.499,-0.599 -0.928,-0.751l-0.168,-0.059l0.548,-0.549c0.302,-0.301 0.565,-0.549 0.584,-0.549c0.02,0 0.09,0.118 0.155,0.262c0.148,0.323 0.391,0.571 0.782,0.798c0.798,0.462 1.704,1.211 2.674,2.212c0.689,0.71 0.825,0.973 0.751,1.446c-0.045,0.288 -0.161,0.478 -0.349,0.573c-0.188,0.094 -0.455,0.12 -0.617,0.061Z" style="fill:#145184;fill-rule:nonzero;"/>
<path d="M11.706,21.616c-0.185,-0.072 -0.113,-0.179 0.646,-0.962l0.551,-0.567l-0.539,-0.519c-0.296,-0.285 -0.553,-0.518 -0.571,-0.519c-0.018,-0.001 -0.132,0.1 -0.254,0.223c-0.122,0.124 -0.445,0.438 -0.718,0.699l-0.496,0.474l-0.072,-0.289c-0.156,-0.632 0.018,-1.264 0.486,-1.764c0.344,-0.367 0.811,-0.533 1.629,-0.579c0.54,-0.031 0.634,-0.06 0.949,-0.296c0.105,-0.078 0.537,-0.481 0.961,-0.896l0.77,-0.754l0.214,0.191c0.27,0.24 0.445,0.424 0.591,0.619c0.108,0.144 0.112,0.157 0.069,0.238c-0.058,0.109 -0.488,0.604 -1.022,1.176c-0.668,0.716 -0.741,0.868 -0.741,1.53c0,1.263 -0.7,1.973 -1.984,2.016c-0.227,0.008 -0.417,-0.001 -0.469,-0.021Z" style="fill:#145184;fill-rule:nonzero;"/>
<path d="M16.127,16.377c-0.218,-0.132 -0.633,-0.508 -1.556,-1.409c-1.375,-1.344 -1.993,-1.904 -2.658,-2.41c-0.577,-0.438 -1.351,-1.27 -1.491,-1.602c-0.063,-0.148 -0.035,-0.226 0.136,-0.384c0.129,-0.118 0.16,-0.133 0.256,-0.117c0.275,0.045 0.916,0.599 1.547,1.339c0.541,0.634 1.275,1.42 2.432,2.603c1.425,1.458 1.763,1.866 1.653,1.998c-0.057,0.069 -0.188,0.061 -0.319,-0.018Z" style="fill:#145184;fill-rule:nonzero;"/>
</g></svg>